<svg width="142" height="130" viewBox="0 0 142 130" version="1.1" xmlns="http://www.w3.org/2000/svg" xmlns:xlink="http://www.w3.org/1999/xlink">
<g id="Canvas" fill="none">
<g id="brother  logo">
<g id="Group">
<g id="Vector">
<path d="M 4.03281e-08 -1.29304e-06L 6.34306 -1.29304e-06C 9.30316 -1.29304e-06 11.5021 0.423701 12.9398 1.2711C 14.6313 2.20325 15.3925 3.72857 15.3925 5.50812C 15.3925 7.88085 14.1239 9.2367 12.0941 9.91463L 12.0941 9.99936C 14.8851 10.8468 16.2382 12.6263 16.2382 15.338C 16.2382 18.0497 14.8851 19.9987 12.0941 21.1003C 10.5718 21.6935 8.71114 21.9478 6.42764 21.9478L 4.03281e-08 21.9478L 4.03281e-08 -1.29304e-06ZM 7.27338 9.06722C 9.21858 9.06722 10.6563 8.30456 10.6563 6.52501C 10.6563 5.84709 10.4872 5.08442 9.64145 4.66072C 8.88029 4.23702 7.5271 4.15228 6.25849 4.15228L 4.73615 4.15228L 4.73615 9.06722L 7.27338 9.06722ZM 6.51221 17.7107C 8.20369 17.7107 9.38773 17.626 10.1489 17.287C 11.1638 16.8633 11.5021 16.0159 11.5021 15.0838C 11.5021 13.2195 10.1489 12.2874 7.61167 12.2874L 4.73615 12.2874L 4.73615 17.7107L 6.51221 17.7107Z" transform="translate(1.01465 89.8331)" fill="#575757"/>
</g>
<g id="Vector_2">
<path d="M 0 -1.29304e-06L 6.76593 -1.29304e-06C 9.38773 -1.29304e-06 11.8404 0.338964 13.5319 1.44059C 15.1388 2.45747 16.1537 4.06754 16.1537 6.60975C 16.1537 9.40618 14.6313 11.6942 11.7558 12.6263L 17.9297 21.863L 12.4324 21.863L 6.93508 13.2195L 4.82073 13.2195L 4.82073 21.863L 0 21.863L 0 -1.29304e-06ZM 7.1888 9.57566C 8.45741 9.57566 9.4723 9.40618 10.2335 9.06722C 11.0792 8.64352 11.5021 7.88085 11.5021 6.86397C 11.5021 5.84708 11.1638 5.16916 10.2335 4.74546C 9.4723 4.32176 8.28827 4.15228 6.68136 4.15228L 4.82073 4.15228L 4.82073 9.57566L 7.1888 9.57566Z" transform="translate(20.2979 89.8331)" fill="#575757"/>
</g>
<g id="Vector_3">
<path d="M -1.2905e-06 11.2705C -1.2905e-06 4.91494 4.9053 -2.58607e-06 11.4175 -2.58607e-06C 17.9297 -2.58607e-06 22.7504 4.91494 22.7504 11.2705C 22.7504 17.626 17.8451 22.5409 11.3329 22.5409C 4.82073 22.5409 -1.2905e-06 17.626 -1.2905e-06 11.2705ZM 18.0143 11.2705C 18.0143 7.37241 15.1388 4.32176 11.4175 4.32176C 7.69625 4.32176 4.82073 7.37241 4.82073 11.2705C 4.82073 15.1685 7.69625 18.2192 11.4175 18.2192C 15.1388 18.2192 18.0143 15.0838 18.0143 11.2705Z" transform="translate(38.9885 89.4941)" fill="#575757"/>
</g>
<g id="Vector_4">
<path d="M 7.01965 4.23702L -2.581e-06 4.23702L -2.581e-06 0L 18.86 0L 18.86 4.23702L 11.8404 4.23702L 11.8404 21.9478L 7.01965 21.9478L 7.01965 4.23702Z" transform="translate(62.7539 89.7484)" fill="#575757"/>
</g>
<g id="Vector_5">
<path d="M 1.2905e-06 -1.29304e-06L 4.82072 -1.29304e-06L 4.82072 8.47403L 14.293 8.47403L 14.293 -1.29304e-06L 19.1138 -1.29304e-06L 19.1138 21.863L 14.293 21.863L 14.293 12.6263L 4.82072 12.6263L 4.82072 21.863L 1.2905e-06 21.863L 1.2905e-06 -1.29304e-06Z" transform="translate(84.0667 89.8331)" fill="#575757"/>
</g>
<g id="Vector_6">
<path d="M -1.2905e-06 -1.29304e-06L 13.4473 -1.29304e-06L 13.4473 4.23702L 4.73615 4.23702L 4.73615 8.55877L 12.1787 8.55877L 12.1787 12.5416L 4.73615 12.5416L 4.73615 17.7107L 13.7856 17.7107L 13.7856 21.9478L -1.2905e-06 21.9478L -1.2905e-06 -1.29304e-06Z" transform="translate(107.071 89.8331)" fill="#575757"/>
</g>
<g id="Vector_7">
<path d="M 5.162e-06 -1.29304e-06L 6.8505 -1.29304e-06C 9.4723 -1.29304e-06 11.925 0.338964 13.6164 1.44059C 15.2233 2.45747 16.2382 4.06754 16.2382 6.60975C 16.2382 9.40618 14.7159 11.6942 11.8404 12.6263L 18.0143 21.863L 12.517 21.863L 7.01965 13.2195L 4.9053 13.2195L 4.9053 21.863L 0.0845716 21.863L 0.0845716 -1.29304e-06L 5.162e-06 -1.29304e-06ZM 7.18881 9.57566C 8.45742 9.57566 9.4723 9.40618 10.2335 9.06722C 11.0792 8.64352 11.5021 7.88085 11.5021 6.86397C 11.5021 5.84708 11.1638 5.16916 10.2335 4.74546C 9.4723 4.32176 8.28827 4.15228 6.68136 4.15228L 4.82073 4.15228L 4.82073 9.57566L 7.18881 9.57566Z" transform="translate(123.986 89.8331)" fill="#575757"/>
</g>
<g id="Vector_8">
<path d="M 0 -5.17214e-06L 2.36808 -5.17214e-06L 2.36808 8.813L 7.1888 8.813L 7.1888 10.9315L 0 10.9315L 0 -5.17214e-06Z" transform="translate(0 118.899)" fill="#3F664E"/>
</g>
<g id="Vector_9">
<path d="M -3.22625e-07 5.59287C -3.22625e-07 2.37273 2.45265 -2.58607e-06 5.66647 -2.58607e-06C 8.88029 -2.58607e-06 11.3329 2.45747 11.3329 5.59287C 11.3329 8.72826 8.96486 11.2705 5.75104 11.2705C 2.53722 11.2705 -3.22625e-07 8.813 -3.22625e-07 5.59287ZM 9.04943 5.59287C 9.04943 3.64384 7.61167 2.11851 5.75104 2.11851C 3.89041 2.11851 2.45265 3.64384 2.45265 5.59287C 2.45265 7.54189 3.89041 9.06721 5.75104 9.06721C 7.61167 9.06721 9.04943 7.54189 9.04943 5.59287Z" transform="translate(7.9502 118.73)" fill="#3F664E"/>
</g>
<g id="Vector_10">
<path d="M 4.48243 -5.17214e-06L 6.76593 -5.17214e-06L 11.1638 10.9315L 8.62656 10.9315L 7.78082 8.64352L 3.38297 8.64352L 2.45265 10.9315L 6.4525e-07 10.9315L 4.48243 -5.17214e-06ZM 4.14413 6.69449L 7.10423 6.69449L 6.68136 5.50812C 6.34306 4.66071 6.00476 3.5591 5.66647 2.7117C 5.41274 3.5591 4.98988 4.66072 4.65158 5.59286L 4.14413 6.69449Z" transform="translate(19.6213 118.899)" fill="#3F664E"/>
</g>
<g id="Vector_11">
<path d="M 4.31328 6.52501C 3.63669 5.59287 2.9601 4.66072 2.2835 3.72858C 2.2835 4.74546 2.2835 5.84708 2.2835 6.86397L 2.2835 10.9315L 6.4525e-07 10.9315L 6.4525e-07 -5.17214e-06L 2.2835 -5.17214e-06L 5.58189 4.4065C 6.25849 5.33865 6.93508 6.27078 7.61167 7.20293C 7.61167 6.18604 7.61167 5.08442 7.61167 4.06753L 7.61167 -5.17214e-06L 9.89518 -5.17214e-06L 9.89518 10.9315L 7.61167 10.9315L 4.31328 6.52501Z" transform="translate(32.3074 118.899)" fill="#3F664E"/>
</g>
<g id="Vector_12">
<path d="M 0.338298 8.05034C 1.52234 8.813 2.9601 9.15195 3.80584 9.15195C 4.65158 9.15195 5.32817 8.813 5.32817 7.96559C 5.32817 6.94871 4.31328 6.86397 2.87552 6.44027C 1.35319 5.93182 0 5.16916 0 3.30487C 0 1.27111 1.52233 5.17214e-06 3.80584 5.17214e-06C 4.9053 5.17214e-06 6.17391 0.254221 7.10423 0.762663L 7.10423 3.1354C 5.92019 2.37273 4.56701 2.11851 3.72126 2.11851C 2.87552 2.11851 2.2835 2.45747 2.2835 3.1354C 2.2835 4.06754 3.29839 4.15228 4.56701 4.57598C 6.17391 5.08442 7.5271 5.93183 7.5271 7.79612C 7.5271 9.91463 5.92019 11.1857 3.55211 11.1857C 2.45265 11.1857 1.09946 10.9315 0.0845729 10.4231L 0.0845729 8.05034L 0.338298 8.05034Z" transform="translate(43.9785 118.645)" fill="#3F664E"/>
</g>
<g id="Vector_13">
<path d="M 9.8106 4.57598L 8.11912 8.64352L 10.5718 11.101L 7.78082 11.101L 6.93508 10.2536C 6.25849 10.8468 5.32817 11.2705 3.97498 11.2705C 1.18404 11.2705 2.581e-06 9.66041 2.581e-06 8.05034C 2.581e-06 6.77923 0.845739 5.84709 2.02978 5.2539L 1.86063 5.08443C 1.26861 4.49124 0.761165 3.72857 0.761165 2.79643C 0.761165 1.2711 2.11435 5.17214e-06 3.97498 5.17214e-06C 5.92019 5.17214e-06 7.1888 1.2711 7.1888 2.79643C 7.1888 3.89805 6.42763 4.74545 5.66647 5.33864L 5.2436 5.59286L 6.59678 7.03344L 7.61168 4.57598L 9.8106 4.57598ZM 3.04467 6.77923C 2.45265 7.1182 2.19893 7.62664 2.19893 8.05034C 2.19893 8.64352 2.70637 9.40618 3.97498 9.40618C 4.65158 9.40618 5.15902 9.15196 5.41274 8.813L 3.29839 6.69449L 3.04467 6.77923ZM 4.22871 3.9828C 4.65158 3.64384 4.9053 3.38962 4.9053 2.96592C 4.9053 2.45748 4.48243 2.03377 3.97498 2.03377C 3.38297 2.03377 3.04467 2.45748 3.04467 2.96592C 3.04467 3.30488 3.21382 3.64384 3.55211 3.9828L 3.89041 4.32176L 4.22871 3.9828Z" transform="translate(56.9182 118.645)" fill="#3F664E"/>
</g>
<g id="Vector_14">
<path d="M 2.581e-06 -5.17214e-06L 6.93508 -5.17214e-06L 6.93508 2.1185L 2.45265 2.1185L 2.45265 4.49124L 6.34306 4.49124L 6.34306 6.52501L 2.45265 6.52501L 2.45265 11.0162L 0.0845754 11.0162L 0.0845754 -5.17214e-06L 2.581e-06 -5.17214e-06Z" transform="translate(72.1418 118.899)" fill="#3F664E"/>
</g>
<g id="Vector_15">
<path d="M 2.581e-06 -5.17214e-06L 2.36807 -5.17214e-06L 2.36807 10.9315L 2.581e-06 10.9315L 2.581e-06 -5.17214e-06Z" transform="translate(81.0222 118.899)" fill="#3F664E"/>
</g>
<g id="Vector_16">
<path d="M 4.31328 6.52501C 3.63669 5.59287 2.96009 4.66072 2.2835 3.72858C 2.2835 4.74546 2.2835 5.84708 2.2835 6.86397L 2.2835 10.9315L 1.2905e-06 10.9315L 1.2905e-06 -5.17214e-06L 2.2835 -5.17214e-06L 5.58189 4.4065C 6.25849 5.33865 6.93508 6.27078 7.61167 7.20293C 7.61167 6.18604 7.61167 5.08442 7.61167 4.06753L 7.61167 -5.17214e-06L 9.89517 -5.17214e-06L 9.89517 10.9315L 7.61167 10.9315L 4.31328 6.52501Z" transform="translate(85.7583 118.899)" fill="#3F664E"/>
</g>
<g id="Vector_17">
<path d="M 4.48243 -5.17214e-06L 6.76593 -5.17214e-06L 11.1638 10.9315L 8.62656 10.9315L 7.78082 8.64352L 3.38296 8.64352L 2.45265 10.9315L -1.2905e-06 10.9315L 4.48243 -5.17214e-06ZM 4.05956 6.69449L 7.01965 6.69449L 6.59678 5.50812C 6.25849 4.66071 5.92019 3.5591 5.58189 2.7117C 5.32817 3.5591 4.9053 4.66072 4.567 5.59286L 4.05956 6.69449Z" transform="translate(96.9221 118.899)" fill="#3F664E"/>
</g>
<g id="Vector_18">
<path d="M 4.31329 6.52501C 3.63669 5.59287 2.96009 4.66072 2.2835 3.72858C 2.2835 4.74546 2.2835 5.84708 2.2835 6.86397L 2.2835 10.9315L 0 10.9315L 0 -5.17214e-06L 2.2835 -5.17214e-06L 5.5819 4.4065C 6.25849 5.33865 6.93508 6.27078 7.61167 7.20293C 7.61167 6.18604 7.61167 5.08442 7.61167 4.06753L 7.61167 -5.17214e-06L 9.89517 -5.17214e-06L 9.89517 10.9315L 7.61167 10.9315L 4.31329 6.52501Z" transform="translate(109.524 118.899)" fill="#3F664E"/>
</g>
<g id="Vector_19">
<path d="M 9.13401 10.5078C 8.2037 11.0163 7.01966 11.2705 5.92019 11.2705C 2.36808 11.2705 2.581e-06 8.81299 2.581e-06 5.6776C 2.581e-06 2.54221 2.45265 -2.58607e-06 5.92019 -2.58607e-06C 7.01966 -2.58607e-06 8.11911 0.254221 8.96485 0.677923L 8.96485 3.13539C 8.20369 2.62695 7.10423 2.20325 5.92019 2.20325C 3.80584 2.20325 2.36808 3.64383 2.36808 5.6776C 2.36808 7.62663 3.80583 9.15196 6.00476 9.15196C 7.10422 9.15196 8.2037 8.72826 9.13401 8.13508L 9.13401 10.5078Z" transform="translate(121.195 118.73)" fill="#3F664E"/>
</g>
<g id="Vector_20">
<path d="M 2.581e-06 -5.17214e-06L 6.76593 -5.17214e-06L 6.76593 2.1185L 2.45265 2.1185L 2.45265 4.23701L 6.17392 4.23701L 6.17392 6.27079L 2.45265 6.27079L 2.45265 8.89773L 6.93508 8.89773L 6.93508 11.0162L 2.581e-06 11.0162L 2.581e-06 -5.17214e-06Z" transform="translate(132.189 118.899)" fill="#3F664E"/>
</g>
</g>
<g id="Group_2">
<g id="Group_3">
<g id="Vector_21">
<path d="M 40.8396 25.1068C 41.0604 25.0325 41.2811 24.9582 41.5019 24.8839C 41.6491 24.8839 41.7226 24.8097 41.8698 24.8097C 42.3849 24.6611 42.8264 24.5125 43.3415 24.364C 42.1642 20.13 41.134 16.7131 40.766 15.6732C 38.1906 7.87372 31.7887 0 20.9717 0C 12.1415 0 3.16415 5.86815 0 10.9192C 2.20755 10.9192 8.83019 16.7874 11.0377 23.1012C 11.7 24.9582 13.5396 30.5293 15.6736 36.9174C 24.0623 34.2433 32.3774 28.3008 40.0302 25.4039C 40.3245 25.3296 40.5453 25.1811 40.8396 25.1068Z" transform="translate(19 0)" fill="#6AAB84"/>
</g>
<g id="Vector_22">
<path d="M 1.12282e-06 0.297122C 0.220756 0.222842 0.515095 0.0742798 0.73585 -5.66715e-07C 0.515095 0.0742798 0.294341 0.222842 1.12282e-06 0.297122Z" transform="translate(59.03 25.1068)" fill="#575757"/>
</g>
<g id="Vector_23">
<path d="M 1.12282e-06 0.0742804C 0.147171 0 0.220756 1.13343e-06 0.367926 1.13343e-06C 0.220756 1.13343e-06 0.073586 0.0742804 1.12282e-06 0.0742804Z" transform="translate(60.5017 24.8096)" fill="#575757"/>
</g>
<g id="Vector_24">
<path d="M 7.72642 1.70845C 3.38491 1.70845 1.61887 1.18849 0 5.66715e-07C 5.15094 14.8561 12.8774 18.8672 21.7075 18.8672C 21.7811 18.8672 21.7811 18.8672 21.8547 18.8672C 20.1623 13.7419 17.8075 6.68524 15.6736 0.371403C 13.0245 1.18849 10.3755 1.70845 7.72642 1.70845Z" transform="translate(19 36.546)" fill="#6AAB84"/>
</g>
<g id="Vector_25">
<path d="M 0 0.222841C 0.220755 0.14856 0.441511 0.0742804 0.662265 0C 0.441511 0.0742804 0.220755 0.14856 0 0.222841Z" transform="translate(59.8396 24.8839)" fill="#575757"/>
</g>
<g id="Vector_26">
<path d="M 1.4717 -5.66715e-07C 0.956603 0.0742798 0.515094 0.222842 -5.61408e-07 0.445684C 0.515094 0.297123 1.03019 0.14856 1.4717 -5.66715e-07Z" transform="translate(60.7961 24.364)" fill="#575757"/>
</g>
<g id="Vector_27">
<path d="M 27.5943 -5.66715e-07C 27.0792 0.14856 26.5642 0.297123 26.1226 0.445684C 25.9755 0.445684 25.9019 0.519963 25.7547 0.519963C 25.534 0.594243 25.3132 0.668523 25.0925 0.742804C 24.8717 0.817084 24.5774 0.891366 24.3566 1.03993C 16.7038 3.93686 8.38868 9.8793 -5.61408e-07 12.5534C 2.06038 18.7929 4.41509 25.8496 6.18113 31.0492C 6.3283 31.0492 6.47547 31.0492 6.62264 31.0492C 15.2321 30.9007 23.1057 27.8552 28.9925 21.3185C 30.0962 20.2786 31.2 18.6444 32.4509 17.0845C 31.1264 12.4048 29.2132 5.57103 27.5943 -5.66715e-07Z" transform="translate(34.6736 24.364)" fill="#3F664E"/>
</g>
</g>
<g id="Group_4">
<g id="Vector_28">
<path d="M 28.183 5.66715e-07C 27.0792 5.66715e-07 25.9755 0.0742804 24.9453 0.222841C 23.7679 0.297122 22.5906 0.519962 21.4132 0.817084C 23.0321 6.38811 24.9453 13.2219 26.2698 17.8273C 27.3 16.5645 28.4038 15.3018 29.7283 14.4104C 30.5377 13.7419 31.5679 13.2962 32.6717 13.1476C 32.7453 13.1476 32.7453 13.1476 32.8189 13.1476C 33.1132 13.0734 33.4075 13.0734 33.7019 13.0734C 37.3075 13.0734 40.2509 16.0446 40.2509 19.6843C 40.2509 23.324 37.3075 26.2953 33.7019 26.2953C 30.7585 26.2953 28.183 24.2897 27.3736 21.5413C 27.0792 20.65 26.7113 19.3129 26.2698 17.753C 25.0189 19.3129 23.9151 20.9471 22.8113 21.987C 16.9245 28.598 9.05094 31.7177 0.441509 31.8663C 0.294339 31.8663 0.14717 31.8663 5.61408e-07 31.8663C 0.367925 32.9805 0.735849 34.0947 1.03019 34.9861C 4.04717 47.3166 15.0113 56.4531 28.183 56.4531C 43.6358 56.4531 56.1453 43.8254 56.1453 28.2266C 56.1453 12.6277 45.1075 5.66715e-07 28.183 5.66715e-07Z" transform="translate(40.8547 23.5469)" fill="#6AAB84"/>
</g>
</g>
</g>
</g>
</g>
</svg>

