<svg width="242" height="95" viewBox="0 0 242 95" version="1.1" xmlns="http://www.w3.org/2000/svg" xmlns:xlink="http://www.w3.org/1999/xlink">
<g id="Canvas" fill="none">
<g id="checkmate logo">
<g id="checkmate logo_2">
<g id="Group">
<g id="Group_2">
<g id="Group_3">
<g id="Vector">
<path d="M 15.2023 0C 18.2075 0 20.6822 0.703704 22.8035 1.75926L 22.8035 5.27778C 20.3287 3.87037 17.6771 2.99074 15.0256 2.99074C 7.95471 2.99074 3.35866 8.09259 3.35866 14.6019C 3.35866 21.287 8.30825 26.037 15.0256 26.037C 18.2075 26.037 21.2126 24.9815 23.3338 23.3981L 23.3338 27.2685C 21.0358 28.6759 18.0307 29.3796 14.8488 29.3796C 6.01023 29.3796 0 23.2222 0 14.7778C 0 6.33334 6.36377 0 15.2023 0Z" transform="translate(0 46.6204)" fill="#6F7271"/>
</g>
<g id="Vector_2">
<path d="M 6.74329e-07 6.71104e-07L 3.35866 6.71104e-07L 3.35866 19.5278L 3.53543 19.5278C 6.36377 16.8889 10.076 14.9537 14.3185 14.9537C 17.5004 14.9537 19.7984 16.0093 21.5661 17.7685C 23.3338 19.5278 24.0409 21.9907 24.0409 26.213L 24.0409 43.6296L 20.6822 43.6296L 20.6822 26.7407C 20.6822 23.2222 20.1519 21.463 18.9145 20.0556C 17.6771 18.8241 16.0862 18.1204 13.7882 18.1204C 9.8992 18.1204 6.187 20.2315 3.35866 23.2222L 3.35866 43.8056L 6.74329e-07 43.8056L 6.74329e-07 6.71104e-07Z" transform="translate(25.8086 31.8426)" fill="#6F7271"/>
</g>
<g id="Vector_3">
<path d="M 3.18188 15.3056C 3.7122 21.9907 8.48502 26.037 15.2023 26.037C 18.9145 26.037 22.0964 24.6296 24.748 22.8704L 24.748 26.5648C 22.0964 28.1481 18.561 29.2037 15.0256 29.2037C 6.36377 29.2037 0 23.2222 0 14.6019C 0 5.98148 6.36377 1.34221e-06 13.9649 1.34221e-06C 20.859 1.34221e-06 26.5157 4.92593 26.5157 13.1944C 26.5157 14.0741 26.5157 14.9537 26.3389 15.6574L 3.18188 15.6574L 3.18188 15.3056ZM 3.18188 12.4907L 22.8035 12.4907C 22.6267 4.92592 17.3236 2.81481 13.4346 2.81481C 8.83857 2.63889 4.06574 5.98148 3.18188 12.4907Z" transform="translate(52.1476 46.9722)" fill="#6F7271"/>
</g>
<g id="Vector_4">
<path d="M 15.2023 0C 18.2075 0 20.6822 0.703704 22.8035 1.75926L 22.8035 5.27778C 20.3287 3.87037 17.6771 2.99074 15.0256 2.99074C 7.95471 2.99074 3.35866 8.09259 3.35866 14.6019C 3.35866 21.287 8.30825 26.037 15.0256 26.037C 18.2074 26.037 21.2126 24.9815 23.3338 23.3981L 23.3338 27.2685C 21.0358 28.6759 18.0307 29.3796 14.8488 29.3796C 6.01023 29.3796 -2.69732e-06 23.2222 -2.69732e-06 14.7778C -2.69732e-06 6.33334 6.36377 0 15.2023 0Z" transform="translate(79.7239 46.6204)" fill="#6F7271"/>
</g>
<g id="Vector_5">
<path d="M 2.69732e-06 6.71104e-07L 3.35865 6.71104e-07L 3.35865 27.9722L 17.6771 15.4815L 22.0964 15.4815L 7.60116 27.9722L 23.5106 43.4537L 18.9145 43.4537L 3.35865 28.1481L 3.35865 43.4537L 2.69732e-06 43.4537L 2.69732e-06 6.71104e-07Z" transform="translate(106.77 31.8426)" fill="#6F7271"/>
</g>
<g id="Vector_6">
<path d="M 9.72243 14.7778C 7.60117 11.787 5.47992 8.62037 3.53543 5.80556L 3.35866 5.80556C 3.35866 9.14815 3.35866 12.8426 3.35866 16.3611L 3.35866 41.1667L 2.69732e-06 41.1667L 2.69732e-06 -6.71104e-07L 3.35866 -6.71104e-07L 19.4449 23.0463L 35.531 -6.71104e-07L 39.0665 -6.71104e-07L 39.0665 41.3426L 35.531 41.3426L 35.531 16.3611C 35.531 12.8426 35.531 9.14815 35.531 5.80556L 35.3543 5.80556C 33.4098 8.62037 31.2885 11.787 29.1673 14.7778L 19.4449 28.8519L 9.72243 14.7778Z" transform="translate(132.402 34.1296)" fill="#E1251B"/>
</g>
<g id="Vector_7">
<path d="M 3.00511 27.0926C 1.2374 25.6852 2.69732e-06 23.75 2.69732e-06 21.1111C 2.69732e-06 18.1204 1.41417 16.0093 3.53543 14.6019C 5.65669 13.1944 8.48503 12.6667 11.3134 12.6667C 13.9649 12.6667 16.263 13.0185 18.561 13.7222L 18.561 10.5556C 18.561 7.74074 18.0307 5.98148 16.4397 4.75C 15.2023 3.69444 13.2579 2.99074 10.6063 2.99074C 7.24763 2.99074 4.24251 4.0463 1.94449 5.80556L 1.94449 2.46296C 4.24251 1.05556 7.42439 1.34221e-06 10.9598 1.34221e-06C 14.3185 1.34221e-06 17.1468 0.87963 18.9145 2.46296C 20.859 4.0463 21.7429 6.50926 21.7429 10.0278L 21.7429 22.1667C 21.7429 24.6296 22.2732 26.3889 24.5712 26.3889C 25.2783 26.3889 25.8086 26.213 26.3389 25.8611L 26.3389 28.8518C 25.6319 29.2037 24.9248 29.3796 23.8641 29.3796C 21.3893 29.3796 19.6216 28.3241 18.7378 26.037L 18.561 26.037C 16.4397 27.7963 13.0811 29.5556 9.19211 29.5556C 7.24762 29.0278 4.77282 28.5 3.00511 27.0926ZM 18.561 22.6944L 18.561 16.3611C 16.4397 15.6574 13.7882 15.3056 11.4901 15.3056C 7.4244 15.3056 3.35866 16.537 3.35866 20.7593C 3.35866 24.4537 6.54054 26.037 9.8992 26.037C 13.2579 26.037 16.4397 24.6296 18.561 22.6944Z" transform="translate(174.827 46.9722)" fill="#E1251B"/>
</g>
<g id="Vector_8">
<path d="M 5.65668 26.9167L 5.65668 11.4352L 0 11.4352L 0 8.44444L 5.65668 8.44444L 5.65668 0.527777L 9.01534 6.71104e-07L 9.01534 8.44444L 18.2075 8.44444L 18.2075 11.4352L 9.01534 11.4352L 9.01534 26.3889C 9.01534 30.6111 9.72243 34.1296 14.1417 34.1296C 15.5559 34.1296 17.1468 33.7778 18.2075 33.0741L 18.2075 36.2407C 17.1468 36.7685 15.3791 37.1204 13.7882 37.1204C 11.6669 37.1204 9.36889 36.5926 7.77794 34.6574C 6.187 33.0741 5.65668 30.6111 5.65668 26.9167Z" transform="translate(197.984 38.8796)" fill="#E1251B"/>
</g>
<g id="Vector_9">
<path d="M 3.35866 15.3056C 3.88898 21.9907 8.66181 26.037 15.3791 26.037C 19.0913 26.037 22.2732 24.6296 24.748 22.8704L 24.748 26.5648C 22.0964 28.1481 18.561 29.2037 15.0256 29.2037C 6.36376 29.2037 2.69732e-06 23.2222 2.69732e-06 14.6019C 2.69732e-06 5.98148 6.36377 1.34221e-06 13.9649 1.34221e-06C 20.859 1.34221e-06 26.5157 4.92593 26.5157 13.1944C 26.5157 14.0741 26.5157 14.9537 26.3389 15.6574L 3.35866 15.6574L 3.35866 15.3056ZM 3.35866 12.4907L 23.157 12.4907C 22.9803 4.92592 17.6771 2.81481 13.7882 2.81481C 9.19211 2.63889 4.41929 5.98148 3.35866 12.4907Z" transform="translate(215.484 46.9722)" fill="#E1251B"/>
</g>
</g>
</g>
<g id="Group_4">
<g id="Vector_10">
<path d="M 38.8897 22.3426C 42.9554 14.0741 47.198 5.62963 56.5668 0L 27.9299 0C 17.1468 5.27778 13.2579 14.25 9.54565 22.8704C 6.89408 28.8519 4.59606 34.6574 2.69732e-06 38.8796L 27.5763 38.8796C 32.7027 35.0093 35.7078 28.8518 38.8897 22.3426Z" transform="translate(58.1577 0)" fill="#E1251B"/>
</g>
<g id="Vector_11">
<path d="M 38.8897 22.3426C 42.9554 14.0741 47.198 5.62963 56.5668 0L 27.9299 0C 17.1468 5.27778 13.2579 14.25 9.54565 22.8704C 6.89408 28.8519 4.59606 34.6574 2.69732e-06 38.8796L 27.5763 38.8796C 32.7027 35.0093 35.7078 28.8518 38.8897 22.3426Z" transform="translate(58.1577 0)" fill="url(#paint0_linear)"/>
</g>
</g>
<g id="Group_5">
<g id="Vector_12">
<path d="M 22.6267 0.560552C 15.9094 -0.67093 4.06574 0.384625 -1.34866e-06 1.26425C 5.65668 3.37537 10.076 8.82907 13.0811 14.1068C 17.6771 10.7643 20.3287 5.83833 22.6267 0.560552Z" transform="translate(42.0717 24.5969)" fill="#7B868C"/>
</g>
<g id="Vector_13">
<path d="M 22.6267 0.560552C 15.9094 -0.67093 4.06574 0.384625 -1.34866e-06 1.26425C 5.65668 3.37537 10.076 8.82907 13.0811 14.1068C 17.6771 10.7643 20.3287 5.83833 22.6267 0.560552Z" transform="translate(42.0717 24.5969)" fill="url(#paint1_linear)"/>
</g>
</g>
<g id="Group_6">
<g id="Vector_14">
<path d="M -8.42912e-08 0L 1.76771 0L 1.76771 6.15741L 5.12637 6.15741L 5.12637 7.56481L -8.42912e-08 7.56481L -8.42912e-08 0Z" transform="translate(3.18188 87.0833)" fill="#6F7271"/>
</g>
<g id="Vector_15">
<path d="M 6.74329e-07 0L 4.77283 0L 4.77283 1.40741L 1.59094 1.40741L 1.59094 2.99074L 4.24251 2.99074L 4.24251 4.39815L 1.59094 4.39815L 1.59094 6.15741L 4.77283 6.15741L 4.77283 7.56481L 6.74329e-07 7.56481L 6.74329e-07 0Z" transform="translate(16.9701 87.0833)" fill="#6F7271"/>
</g>
<g id="Vector_16">
<path d="M 3.00511 4.39815C 2.4748 3.69444 1.94448 3.16667 1.59094 2.46296C 1.59094 3.16667 1.59094 3.87037 1.59094 4.75L 1.59094 7.56482L 0 7.56482L 0 -2.68442e-06L 1.59094 -2.68442e-06L 3.88897 3.16667C 4.41929 3.87037 4.9496 4.39815 5.30314 5.10185C 5.30314 4.39815 5.30314 3.69445 5.30314 2.81482L 5.30314 -2.68442e-06L 6.89408 -2.68442e-06L 6.89408 7.56482L 5.30314 7.56482L 3.00511 4.39815Z" transform="translate(30.9351 87.2593)" fill="#6F7271"/>
</g>
<g id="Vector_17">
<path d="M 6.74329e-07 0L 2.12125 0C 3.53543 0 4.59606 0.175929 5.47991 0.703706C 6.36377 1.40741 7.07086 2.46296 7.07086 3.69444C 7.07086 4.92592 6.54054 5.98148 5.83345 6.50926C 4.9496 7.21296 3.88897 7.38889 2.29803 7.38889L 0.176773 7.38889L 0.176773 0L 6.74329e-07 0ZM 2.29803 6.15741C 3.35866 6.15741 4.06574 5.98148 4.59606 5.62963C 5.12637 5.27778 5.30314 4.57408 5.30314 3.87037C 5.30314 2.99074 4.9496 2.46296 4.41928 1.93518C 3.88897 1.58333 3.18188 1.40741 2.29803 1.40741L 1.76771 1.40741L 1.76771 6.15741L 2.29803 6.15741Z" transform="translate(47.0212 87.0833)" fill="#6F7271"/>
</g>
<g id="Vector_18">
<path d="M -2.69732e-06 0L 1.76771 0L 1.76771 7.56481L -2.69732e-06 7.56481L -2.69732e-06 0Z" transform="translate(62.9305 87.0833)" fill="#6F7271"/>
</g>
<g id="Vector_19">
<path d="M 3.00511 4.39815C 2.4748 3.69444 1.94448 3.16667 1.59094 2.46296C 1.59094 3.16667 1.59094 3.87037 1.59094 4.75L 1.59094 7.56482L 2.69732e-06 7.56482L 2.69732e-06 -2.68442e-06L 1.59094 -2.68442e-06L 3.88897 3.16667C 4.41928 3.87037 4.9496 4.39815 5.30314 5.10185C 5.30314 4.39815 5.30314 3.69445 5.30314 2.81482L 5.30314 -2.68442e-06L 6.89408 -2.68442e-06L 6.89408 7.56482L 5.30314 7.56482L 3.00511 4.39815Z" transform="translate(74.0673 87.2593)" fill="#6F7271"/>
</g>
<g id="Vector_20">
<path d="M 6.89408 7.21296C 6.187 7.56481 5.12637 7.91667 4.24251 7.91667C 1.76771 7.91667 2.69732e-06 6.33333 2.69732e-06 4.0463C 2.69732e-06 1.75926 1.76771 2.68442e-06 4.24251 2.68442e-06C 5.12637 2.68442e-06 6.01023 0.175927 6.71731 0.527779L 6.71731 2.28704C 6.01023 1.75926 5.12637 1.58333 4.41929 1.58333C 2.82834 1.58333 1.76772 2.63889 1.76772 4.0463C 1.76772 5.4537 2.82834 6.50926 4.41929 6.50926C 4.77283 6.50926 5.12637 6.50926 5.30314 6.33333L 5.30314 5.10185L 3.88897 5.10185L 3.88897 3.69444L 6.89408 3.69444L 6.89408 7.21296Z" transform="translate(89.9767 86.9074)" fill="#6F7271"/>
</g>
<g id="Vector_21">
<path d="M 0.353537 5.4537C 1.23739 5.98148 2.29803 6.33333 2.82834 6.33333C 3.53542 6.33333 3.88896 6.1574 3.88896 5.4537C 3.88896 4.75 3.18188 4.75 2.12125 4.39815C 1.06062 4.0463 0 3.51852 0 2.28704C 0 0.879628 1.06063 0 2.82834 0C 3.53542 0 4.59606 0.175925 5.30314 0.527776L 5.30314 2.11111C 4.41928 1.58333 3.53542 1.40741 2.82834 1.40741C 2.29803 1.40741 1.76771 1.58333 1.76771 2.11111C 1.76771 2.81482 2.4748 2.81481 3.35866 3.16667C 4.59606 3.51852 5.47991 4.04629 5.47991 5.4537C 5.47991 6.86111 4.24251 7.91667 2.65157 7.91667C 1.94449 7.91667 0.883854 7.74074 0.176769 7.38889L 0.176769 5.4537L 0.353537 5.4537Z" transform="translate(115.785 87.0833)" fill="#6F7271"/>
</g>
<g id="Vector_22">
<path d="M 0 3.87037C 0 1.58333 1.76772 0 4.06575 0C 6.36377 0 8.13148 1.75926 8.13148 3.87037C 8.13148 5.98148 6.36377 7.74074 4.06575 7.74074C 1.76772 7.74074 0 5.98148 0 3.87037ZM 6.54054 3.87037C 6.54054 2.46296 5.47992 1.40741 4.24252 1.40741C 3.00512 1.40741 1.94448 2.46296 1.94448 3.87037C 1.94448 5.27778 3.00512 6.33333 4.24252 6.33333C 5.47992 6.33333 6.54054 5.10185 6.54054 3.87037Z" transform="translate(129.927 87.0833)" fill="#6F7271"/>
</g>
<g id="Vector_23">
<path d="M -5.39463e-06 0L 1.76771 0L 1.76771 6.15741L 5.12637 6.15741L 5.12637 7.56481L -5.39463e-06 7.56481L -5.39463e-06 0Z" transform="translate(147.074 87.0833)" fill="#6F7271"/>
</g>
<g id="Vector_24">
<path d="M 6.71732 4.0463C 6.71732 5.27778 6.54054 5.98148 6.187 6.68519C 5.65668 7.38889 4.59606 7.91667 3.35866 7.91667C 2.12126 7.91667 1.06063 7.38889 0.53032 6.68519C 0.176777 6.15741 0 5.27778 0 4.22222L 0 0.175926L 1.76771 0.175926L 1.76771 4.0463C 1.76771 4.92593 1.76771 5.27777 2.12125 5.62963C 2.29802 5.98148 2.82834 6.33333 3.53543 6.33333C 4.24251 6.33333 4.59606 6.1574 4.9496 5.62963C 5.12638 5.27777 5.30314 4.75 5.30314 3.87037L 5.30314 2.68442e-06L 6.89409 2.68442e-06L 6.89409 4.0463L 6.71732 4.0463Z" transform="translate(160.862 86.9074)" fill="#6F7271"/>
</g>
<g id="Vector_25">
<path d="M 2.4748 1.40741L -5.39463e-06 1.40741L -5.39463e-06 0L 6.89408 0L 6.89408 1.40741L 4.41928 1.40741L 4.41928 7.56481L 2.65157 7.56481L 2.65157 1.40741L 2.4748 1.40741Z" transform="translate(176.241 87.0833)" fill="#6F7271"/>
</g>
<g id="Vector_26">
<path d="M 2.69732e-06 0L 1.76772 0L 1.76772 7.56481L 2.69732e-06 7.56481L 2.69732e-06 0Z" transform="translate(191.62 87.0833)" fill="#6F7271"/>
</g>
<g id="Vector_27">
<path d="M 2.69732e-06 3.87037C 2.69732e-06 1.58333 1.76771 0 4.06574 0C 6.36376 0 8.13148 1.75926 8.13148 3.87037C 8.13148 5.98148 6.36376 7.74074 4.06574 7.74074C 1.76771 7.74074 2.69732e-06 5.98148 2.69732e-06 3.87037ZM 6.54054 3.87037C 6.54054 2.46296 5.47992 1.40741 4.24252 1.40741C 3.00512 1.40741 1.94449 2.46296 1.94449 3.87037C 1.94449 5.27778 3.00512 6.33333 4.24252 6.33333C 5.47992 6.33333 6.54054 5.10185 6.54054 3.87037Z" transform="translate(202.226 87.0833)" fill="#6F7271"/>
</g>
<g id="Vector_28">
<path d="M 3.00512 4.39815C 2.4748 3.69444 1.94449 3.16667 1.59094 2.46296C 1.59094 3.16667 1.59094 3.87037 1.59094 4.75L 1.59094 7.56482L -2.69732e-06 7.56482L -2.69732e-06 -2.68442e-06L 1.59094 -2.68442e-06L 3.88898 3.16667C 4.41929 3.87037 4.9496 4.39815 5.30314 5.10185C 5.30314 4.39815 5.30314 3.69445 5.30314 2.81482L 5.30314 -2.68442e-06L 6.89408 -2.68442e-06L 6.89408 7.56482L 5.30314 7.56482L 3.00512 4.39815Z" transform="translate(219.373 87.2593)" fill="#6F7271"/>
</g>
<g id="Vector_29">
<path d="M 0.353537 5.4537C 1.23739 5.98148 2.29804 6.33333 2.82835 6.33333C 3.53544 6.33333 3.88896 6.1574 3.88896 5.4537C 3.88896 4.75 3.18188 4.75 2.12125 4.39815C 1.06062 4.0463 0 3.51852 0 2.28704C 0 0.879628 1.06064 0 2.82835 0C 3.53544 0 4.59606 0.175925 5.30314 0.527776L 5.30314 2.11111C 4.41928 1.58333 3.53544 1.40741 2.82835 1.40741C 2.29804 1.40741 1.76771 1.58333 1.76771 2.11111C 1.76771 2.81482 2.47479 2.81481 3.35865 3.16667C 4.59605 3.51852 5.47992 4.04629 5.47992 5.4537C 5.47992 6.86111 4.24251 7.91667 2.65157 7.91667C 1.94449 7.91667 0.883868 7.74074 0.176782 7.38889L 0.176782 5.4537L 0.353537 5.4537Z" transform="translate(235.106 87.0833)" fill="#6F7271"/>
</g>
</g>
<g id="Vector_30">
<path d="M 240.056 -2.68442e-06L 0 -2.68442e-06L 0 0.879627L 240.056 0.879627L 240.056 -2.68442e-06Z" transform="translate(1.7677 81.9815)" fill="#6F7271"/>
</g>
</g>
</g>
</g>
</g>
<defs>

<linearGradient id="paint0_linear" x2="1" gradientUnits="userSpaceOnUse" gradientTransform="matrix(0 58.5423 -58.8237 0 57.6421 -12.2958)">
<stop stop-color="#2D2A26"/>
<stop offset="0.5227" stop-color="#2D2A26" stop-opacity="0"/>
</linearGradient>
<linearGradient id="paint1_linear" x2="1" gradientUnits="userSpaceOnUse" gradientTransform="matrix(0 -19.8001 19.8953 0 1.42778 9.30618)">
<stop stop-color="#2D2A26" stop-opacity="0.5"/>
<stop offset="0.5227" stop-color="#2D2A26" stop-opacity="0"/>
</linearGradient>

</defs>
</svg>

