<svg width="211" height="127" viewBox="0 0 211 127" version="1.1" xmlns="http://www.w3.org/2000/svg" xmlns:xlink="http://www.w3.org/1999/xlink">
<g id="Canvas" fill="none">
<g id="crystal rock">
<g id="Group">
<g id="Vector">
<path d="M 14.1311 13.6613L 16.2136 15.7515C 16.2136 15.7515 13.8336 18.8122 9.22242 18.8122C 4.01621 18.8122 -1.10826e-09 14.781 -1.10826e-09 9.40611C -1.10826e-09 4.03119 3.94184 1.13909e-06 9.22242 1.13909e-06C 13.6105 1.13909e-06 15.9161 2.83676 15.9161 2.83676L 13.8336 4.92701C 13.8336 4.92701 12.1974 2.91142 9.22242 2.91142C 5.65245 2.91142 3.1981 5.89748 3.1981 9.40611C 3.1981 12.9147 5.65245 15.9008 9.22242 15.9008C 12.4205 15.9008 14.1311 13.6613 14.1311 13.6613Z" transform="translate(0 86.9018)" fill="#6E6E6E"/>
</g>
<g id="Vector_2">
<path d="M -2.83716e-07 2.27819e-06L 5.94995 2.27819e-06C 9.51992 2.27819e-06 11.9743 2.3142 11.9743 5.67352C 11.9743 8.43564 10.4868 10.4512 7.95805 11.1231L 12.4949 18.215L 8.85055 18.215L 4.53683 11.3471L 3.12372 11.3471L 3.12372 18.215L -2.83716e-07 18.215L -2.83716e-07 2.27819e-06ZM 8.85055 5.67352C 8.85055 3.88188 7.58618 2.98607 5.57808 2.98607L 3.12372 2.98607L 3.12372 8.36099L 5.57808 8.36099C 7.58618 8.43564 8.85055 7.46516 8.85055 5.67352Z" transform="translate(21.1967 87.2004)" fill="#6E6E6E"/>
</g>
<g id="Vector_3">
<path d="M 9.29679 18.215L 6.17307 18.215L 6.17307 11.0485L 5.67431e-07 2.27819e-06L 3.42122 2.27819e-06L 7.88368 8.13703L 12.3461 2.27819e-06L 15.4699 2.27819e-06L 9.29679 11.0485L 9.29679 18.215Z" transform="translate(36.6666 87.2004)" fill="#6E6E6E"/>
</g>
<g id="Vector_4">
<path d="M 6.39619 10.8991C 3.71872 9.92867 0.743743 8.51029 0.743743 5.15097C 0.743743 2.61281 3.04935 1.13909e-06 6.69369 1.13909e-06C 10.4868 1.13909e-06 12.5693 2.91142 12.5693 2.91142L 10.4124 5.07631C 10.4124 5.07631 8.92492 2.98607 6.69369 2.98607C 5.13183 2.98607 3.94184 3.95654 3.94184 5.15097C 3.94184 6.71865 5.35495 7.24122 7.88368 8.13704C 10.6355 9.18216 12.9411 10.4512 12.9411 13.7359C 12.9411 17.0206 10.0405 18.8122 6.61932 18.8122C 2.08248 18.8122 0 15.0796 0 15.0796L 2.3056 13.1387C 2.3056 13.1387 3.86747 15.9008 6.61932 15.9008C 8.18118 15.9008 9.74304 15.3036 9.74304 13.8106C 9.66866 12.2429 8.55305 11.7203 6.39619 10.8991Z" transform="translate(56.2271 86.9018)" fill="#6E6E6E"/>
</g>
<g id="Vector_5">
<path d="M 4.98308 2.98607L 0 2.98607L 0 2.27819e-06L 13.0899 2.27819e-06L 13.0899 2.98607L 8.1068 2.98607L 8.1068 18.215L 4.98308 18.215L 4.98308 2.98607Z" transform="translate(73.3333 87.2004)" fill="#6E6E6E"/>
</g>
<g id="Vector_6">
<path d="M 6.99118 2.27819e-06L 10.1149 2.27819e-06L 17.1805 18.215L 14.1311 18.215L 12.4949 13.8852L 4.83433 13.8852L 3.1981 18.215L 0 18.215L 6.99118 2.27819e-06ZM 5.87557 11.0485L 11.3049 11.0485L 8.55305 3.95654L 5.87557 11.0485Z" transform="translate(88.5798 87.2004)" fill="#6E6E6E"/>
</g>
<g id="Vector_7">
<path d="M -4.53945e-06 2.27819e-06L 3.12373 2.27819e-06L 3.12373 15.2289L 10.8587 15.2289L 10.8587 18.215L -4.53945e-06 18.215L -4.53945e-06 2.27819e-06Z" transform="translate(110.446 87.2004)" fill="#6E6E6E"/>
</g>
<g id="Vector_8">
<path d="M 0 2.27819e-06L 5.94995 2.27819e-06C 9.51992 2.27819e-06 11.9743 2.3142 11.9743 5.67352C 11.9743 8.43564 10.4868 10.4512 7.95805 11.1231L 12.4949 18.215L 8.85054 18.215L 4.53684 11.3471L 3.12372 11.3471L 3.12372 18.215L 0 18.215L 0 2.27819e-06ZM 8.85054 5.67352C 8.85054 3.88188 7.58618 2.98607 5.57808 2.98607L 3.12372 2.98607L 3.12372 8.36099L 5.57808 8.36099C 7.58618 8.43564 8.85054 7.46516 8.85054 5.67352Z" transform="translate(136.179 87.2004)" fill="#6E6E6E"/>
</g>
<g id="Vector_9">
<path d="M 18.2961 9.40611C 18.2961 14.781 14.4286 18.8122 9.14805 18.8122C 3.86747 18.8122 0 14.781 0 9.40611C 0 4.03119 3.86747 1.13909e-06 9.14805 1.13909e-06C 14.4286 1.13909e-06 18.2961 4.03119 18.2961 9.40611ZM 15.098 9.40611C 15.098 5.89748 12.718 2.98607 9.07367 2.98607C 5.42932 2.98607 3.04935 5.89748 3.04935 9.40611C 3.04935 12.9147 5.42932 15.8262 9.07367 15.8262C 12.7924 15.9008 15.098 12.9147 15.098 9.40611Z" transform="translate(152.914 86.9018)" fill="#6E6E6E"/>
</g>
<g id="Vector_10">
<path d="M 14.1311 13.6613L 16.2136 15.7515C 16.2136 15.7515 13.8336 18.8122 9.22242 18.8122C 4.01622 18.8122 -4.53945e-06 14.781 -4.53945e-06 9.40611C -4.53945e-06 4.03119 3.94184 1.13909e-06 9.22242 1.13909e-06C 13.6105 1.13909e-06 15.9161 2.83676 15.9161 2.83676L 13.8336 4.92701C 13.8336 4.92701 12.1974 2.91142 9.22242 2.91142C 5.65245 2.91142 3.19809 5.89748 3.19809 9.40611C 3.19809 12.9147 5.65245 15.9008 9.22242 15.9008C 12.4205 15.9008 14.1311 13.6613 14.1311 13.6613Z" transform="translate(175.523 86.9018)" fill="#6E6E6E"/>
</g>
<g id="Vector_11">
<path d="M 3.12372 8.13704L 9.5943 1.13909e-06L 13.4618 1.13909e-06L 6.39619 8.9582L 14.3543 18.215L 10.2637 18.215L 3.12372 10.0033L 3.12372 18.215L -9.0789e-06 18.215L -9.0789e-06 1.13909e-06L 3.12372 1.13909e-06L 3.12372 8.13704Z" transform="translate(196.646 87.2751)" fill="#6E6E6E"/>
</g>
</g>
<g id="Group_2">
<g id="Vector_12">
<path d="M 1.93373 4.6284L 6.39619 4.6284L 6.39619 6.49469L 1.93373 6.49469L 1.93373 11.3471L -1.13486e-06 11.3471L -1.13486e-06 0L 6.69369 0L 6.69369 1.86629L 1.93373 1.86629L 1.93373 4.6284Z" transform="translate(42.1703 115.429)" fill="#6E6E6E"/>
</g>
<g id="Vector_13">
<path d="M 1.13486e-06 0L 1.93373 0L 1.93373 11.3471L 1.13486e-06 11.3471L 1.13486e-06 0Z" transform="translate(60.2432 115.429)" fill="#6E6E6E"/>
</g>
<g id="Vector_14">
<path d="M 1.71061 0L 7.36306 7.83843L 7.36306 0L 9.29679 0L 9.29679 11.3471L 7.58618 11.3471L 1.93373 3.58328L 1.93373 11.3471L -1.13486e-06 11.3471L -1.13486e-06 0L 1.71061 0Z" transform="translate(74.1511 115.429)" fill="#6E6E6E"/>
</g>
<g id="Vector_15">
<path d="M 4.38809 0L 6.32182 0L 10.7099 11.3471L 8.77617 11.3471L 7.73493 8.6596L 2.97497 8.6596L 1.93373 11.3471L 1.13486e-06 11.3471L 4.38809 0ZM 3.71871 6.86795L 7.13994 6.86795L 5.42933 2.46351L 3.71871 6.86795Z" transform="translate(94.0835 115.429)" fill="#6E6E6E"/>
</g>
<g id="Vector_16">
<path d="M 1.71061 0L 7.36306 7.83843L 7.36306 0L 9.29679 0L 9.29679 11.3471L 7.58618 11.3471L 1.93374 3.58328L 1.93374 11.3471L -2.26972e-06 11.3471L -2.26972e-06 0L 1.71061 0Z" transform="translate(115.503 115.429)" fill="#6E6E6E"/>
</g>
<g id="Vector_17">
<path d="M 8.77617 8.58494L 10.0405 9.85402C 10.0405 9.85402 8.55305 11.795 5.72683 11.795C 2.45436 11.795 4.53945e-06 9.25681 4.53945e-06 5.89749C 4.53945e-06 2.53816 2.45436 -2.27819e-06 5.72683 -2.27819e-06C 8.4043 -2.27819e-06 9.89178 1.79165 9.89178 1.79165L 8.55305 3.06072C 8.55305 3.06072 7.51181 1.79165 5.65245 1.79165C 3.42122 1.79165 1.85936 3.65793 1.85936 5.82283C 1.85936 7.98773 3.42122 9.85402 5.65245 9.85402C 7.73493 9.92867 8.77617 8.58494 8.77617 8.58494Z" transform="translate(135.882 115.205)" fill="#6E6E6E"/>
</g>
<g id="Vector_18">
<path d="M 1.93373 4.6284L 6.47057 4.6284L 6.47057 6.49469L 1.93373 6.49469L 1.93373 9.55542L 6.91682 9.55542L 6.91682 11.4217L 2.26972e-06 11.4217L 2.26972e-06 0L 6.84244 0L 6.84244 1.86629L 1.93373 1.86629L 1.93373 4.6284Z" transform="translate(156.855 115.429)" fill="#6E6E6E"/>
</g>
</g>
<g id="Group_3">
<g id="Vector_19" style="mix-blend-mode:multiply">
<path d="M 0 75.4729L 0 0L 75.1925 0L 0 75.4729Z" transform="translate(101.524 0)" fill="#8BD2FF"/>
</g>
</g>
<g id="Group_4">
<g id="Vector_20" style="mix-blend-mode:multiply">
<path d="M 75.1925 0L 1.13486e-06 0L 1.13486e-06 75.4729L 75.1925 0L 150.385 75.4729L 112.826 75.4729L 75.1925 37.6991L 75.1925 0Z" transform="translate(26.3317 0)" fill="#8BD2FF"/>
</g>
</g>
<g id="Group_5">
<g id="Vector_21" style="mix-blend-mode:multiply">
<path d="M 1.13486e-06 0L 75.1925 75.4729L 1.13486e-06 75.4729L 1.13486e-06 0Z" transform="translate(26.3317 0)" fill="#8BD2FF"/>
</g>
</g>
</g>
</g>
</svg>

