<svg width="259" height="78" viewBox="0 0 259 78" version="1.1" xmlns="http://www.w3.org/2000/svg" xmlns:xlink="http://www.w3.org/1999/xlink">
<g id="Canvas" fill="none">
<g id="ifs logo">
<g id="Group">
<g id="Group_2">
<g id="Vector">
<path d="M 1.30698 12.8667L 2.21588e-06 12.8667L 2.21588e-06 -2.21843e-06L 7.76927 -2.21843e-06L 7.76927 1.1631L 1.30698 1.1631L 1.30698 5.59739L 7.26101 5.59739L 7.26101 6.76048L 1.30698 6.76048L 1.30698 12.8667Z" transform="translate(56.8536 62.2982)" fill="#008AD0"/>
</g>
<g id="Vector_2">
<path d="M 1.30698 12.8667L -1.10794e-06 12.8667L -1.10794e-06 -2.21843e-06L 1.30698 -2.21843e-06L 1.30698 12.8667Z" transform="translate(68.326 62.2982)" fill="#008AD0"/>
</g>
<g id="Vector_3">
<path d="M 9.07626 10.9767L 9.07626 -1.10921e-06L 10.3832 -1.10921e-06L 10.3832 12.8667L 8.78581 12.8667L 1.30698 1.81733L 1.30698 12.8667L 1.10794e-06 12.8667L 1.10794e-06 0.0726912L 1.59742 0.0726912L 9.07626 10.9767Z" transform="translate(74.3528 62.2256)" fill="#008AD0"/>
</g>
<g id="Vector_4">
<path d="M 1.4522 12.8667L 0 12.8667L 5.59097 -2.21843e-06L 6.89795 -2.21843e-06L 12.4163 12.8667L 10.9641 12.8667L 9.51192 9.45014L 2.9044 9.45014L 1.4522 12.8667ZM 3.34006 8.28704L 9.00364 8.28704L 6.17185 1.45387L 3.34006 8.28704Z" transform="translate(87.8582 62.2982)" fill="#008AD0"/>
</g>
<g id="Vector_5">
<path d="M 9.07625 10.9767L 9.07625 -1.10921e-06L 10.3832 -1.10921e-06L 10.3832 12.8667L 8.78582 12.8667L 1.30698 1.81733L 1.30698 12.8667L 0 12.8667L 0 0.0726912L 1.59742 0.0726912L 9.07625 10.9767Z" transform="translate(103.469 62.2256)" fill="#008AD0"/>
</g>
<g id="Vector_6">
<path d="M 11.4724 10.904C 11.2546 11.2675 10.9641 11.5582 10.6737 11.849C 10.3832 12.1398 10.0202 12.4306 9.58453 12.6486C 9.14887 12.8667 8.71321 13.0121 8.27755 13.1575C 7.76928 13.3029 7.26101 13.3756 6.68013 13.3756C 5.7362 13.3756 4.79226 13.2302 3.99355 12.8667C 3.19484 12.5033 2.46874 12.0671 1.88786 11.4856C 1.30698 10.904 0.798715 10.1771 0.508275 9.37745C 0.145225 8.57782 -4.43176e-06 7.6328 -4.43176e-06 6.68779C -4.43176e-06 5.74277 0.145225 4.79776 0.508275 3.99814C 0.871325 3.19851 1.30698 2.47157 1.88786 1.89003C 2.46874 1.30848 3.19484 0.799625 3.99355 0.508851C 4.79226 0.218078 5.66359 0 6.68013 0C 7.1884 0 7.62405 0.0726912 8.05971 0.145385C 8.49537 0.218078 8.93104 0.363469 9.3667 0.581549C 9.72975 0.726936 10.0928 0.945012 10.4558 1.23579C 10.8189 1.52656 11.0367 1.74464 11.2546 2.10811L 10.1654 2.90774C 10.0202 2.68966 9.87496 2.47157 9.65713 2.32619C 9.4393 2.1808 9.14887 1.96272 8.85843 1.74464C 8.56799 1.59926 8.20493 1.45387 7.84188 1.38118C 7.47883 1.30848 7.11579 1.23579 6.68013 1.23579C 5.80881 1.23579 5.0827 1.38118 4.42921 1.67195C 3.77572 1.96272 3.19484 2.39888 2.75918 2.90774C 2.32352 3.41659 1.96047 3.99814 1.67003 4.72507C 1.4522 5.37931 1.30698 6.10625 1.30698 6.83318C 1.30698 7.56011 1.4522 8.28705 1.67003 8.94129C 1.88786 9.59553 2.25091 10.1771 2.75918 10.7586C 3.19484 11.2675 3.77572 11.7036 4.42921 11.9944C 5.0827 12.2852 5.80881 12.4306 6.68013 12.4306C 7.40623 12.4306 8.13232 12.2852 8.78581 11.9944C 9.4393 11.7036 10.0202 11.1948 10.4558 10.5405L 11.4724 10.904Z" transform="translate(117.919 62.1529)" fill="#008AD0"/>
</g>
<g id="Vector_7">
<path d="M 1.30698 12.8667L 0 12.8667L 0 -2.21843e-06L 1.30698 -2.21843e-06L 1.30698 12.8667Z" transform="translate(132.876 62.2982)" fill="#008AD0"/>
</g>
<g id="Vector_8">
<path d="M 1.45221 12.8667L 4.43176e-06 12.8667L 5.59097 -2.21843e-06L 6.89796 -2.21843e-06L 12.4163 12.8667L 10.9641 12.8667L 9.51191 9.45014L 2.90441 9.45014L 1.45221 12.8667ZM 3.34006 8.28704L 9.00364 8.28704L 6.17186 1.45387L 3.34006 8.28704Z" transform="translate(137.306 62.2982)" fill="#008AD0"/>
</g>
<g id="Vector_9">
<path d="M 1.37959 11.7036L 7.33361 11.7036L 7.33361 12.8667L -4.43176e-06 12.8667L -4.43176e-06 -2.21843e-06L 1.30698 -2.21843e-06L 1.30698 11.7036L 1.37959 11.7036Z" transform="translate(152.771 62.2982)" fill="#008AD0"/>
</g>
<g id="Vector_10">
<path d="M 6.97056 2.47157C 6.68012 2.10811 6.31707 1.74464 5.88141 1.52656C 5.44575 1.30848 4.93748 1.16309 4.28399 1.16309C 3.99355 1.16309 3.6305 1.23579 3.34006 1.30848C 2.97701 1.38118 2.68657 1.52656 2.46874 1.74464C 2.1783 1.96272 1.96047 2.1808 1.81525 2.47157C 1.67003 2.76235 1.59743 3.12582 1.59743 3.56198C 1.59743 3.99814 1.67003 4.28891 1.81525 4.57968C 1.96047 4.87046 2.1783 5.08854 2.46874 5.23393C 2.75918 5.45201 3.04962 5.59739 3.34006 5.67008C 3.70311 5.81547 3.99355 5.88816 4.3566 6.03355C 4.79226 6.17894 5.22792 6.32432 5.7362 6.5424C 6.17185 6.68779 6.60751 6.90587 6.97056 7.19664C 7.33361 7.48742 7.62405 7.77819 7.84188 8.21435C 8.05971 8.65051 8.20493 9.15936 8.20493 9.8136C 8.20493 10.4678 8.05971 10.9767 7.84188 11.4856C 7.62405 11.9944 7.261 12.3579 6.89795 12.6486C 6.5349 12.9394 6.02664 13.1575 5.59098 13.3029C 5.08271 13.4483 4.57443 13.521 4.06616 13.521C 3.70311 13.521 3.26745 13.4483 2.9044 13.3756C 2.54135 13.3029 2.1783 13.1575 1.81525 13.0121C 1.4522 12.8667 1.16176 12.6486 0.79871 12.4306C 0.50827 12.2125 0.217826 11.9217 -4.43176e-06 11.6309L 1.08915 10.7586C 1.37959 11.1948 1.74264 11.6309 2.25091 11.9217C 2.75918 12.2125 3.34006 12.3579 3.99355 12.3579C 4.3566 12.3579 4.64704 12.2852 5.01009 12.2125C 5.37314 12.1398 5.66359 11.9217 5.95403 11.7036C 6.24447 11.4856 6.46229 11.2675 6.60751 10.904C 6.75273 10.6132 6.89795 10.2498 6.89795 9.8136C 6.89795 9.37744 6.82534 9.01398 6.60751 8.7232C 6.46229 8.43243 6.17185 8.14166 5.88141 7.99627C 5.59097 7.77819 5.22793 7.63281 4.86488 7.48742C 4.50183 7.34203 4.06616 7.19665 3.70311 7.12395C 3.26745 6.97857 2.83179 6.83318 2.46874 6.68779C 2.10569 6.54241 1.67003 6.32432 1.37959 6.03355C 1.08915 5.74278 0.798708 5.452 0.580878 5.01584C 0.363048 4.65238 0.290442 4.14352 0.290442 3.56198C 0.290442 2.98043 0.435662 2.39888 0.653493 1.96272C 0.871323 1.52656 1.23438 1.1631 1.59743 0.872323C 1.96048 0.581549 2.46874 0.363468 2.9044 0.218081C 3.41267 0.0726945 3.84833 -1.10921e-06 4.3566 -1.10921e-06C 5.22792 -1.10921e-06 5.95402 0.145385 6.60751 0.436158C 7.261 0.726932 7.69666 1.0904 7.9871 1.52656L 6.97056 2.47157Z" transform="translate(168.02 61.8621)" fill="#008AD0"/>
</g>
<g id="Vector_11">
<path d="M 1.30699 11.7036L 8.20494 11.7036L 8.20494 12.8667L 2.21588e-06 12.8667L 2.21588e-06 -2.21843e-06L 7.98709 -2.21843e-06L 7.98709 1.1631L 1.30699 1.1631L 1.30699 5.59739L 7.55145 5.59739L 7.55145 6.76048L 1.30699 6.76048L 1.30699 11.7036Z" transform="translate(180.291 62.2982)" fill="#008AD0"/>
</g>
<g id="Vector_12">
<path d="M 1.30699 12.8667L -8.86353e-06 12.8667L -8.86353e-06 -2.21843e-06L 3.77572 -2.21843e-06C 4.42921 -2.21843e-06 5.01009 0.0726945 5.51836 0.145388C 6.02663 0.290775 6.53489 0.436158 6.89794 0.726932C 7.26099 1.01771 7.62406 1.38117 7.84189 1.81733C 8.05972 2.25349 8.13232 2.76235 8.13232 3.41659C 8.13232 3.92544 8.05972 4.28891 7.9145 4.72507C 7.76928 5.16123 7.55145 5.452 7.1884 5.74278C 6.89796 6.03355 6.53489 6.25163 6.17184 6.39702C 5.80879 6.5424 5.30053 6.68779 4.86487 6.76048L 8.6406 12.8667L 7.04317 12.8667L 3.48529 6.83318L 1.30699 6.83318L 1.30699 12.8667ZM 1.30699 5.67008L 3.5579 5.67008C 4.57444 5.67008 5.44575 5.452 5.95402 5.08853C 6.5349 4.72507 6.82535 4.14353 6.82535 3.3439C 6.82535 2.90774 6.75273 2.54427 6.60751 2.2535C 6.46229 1.96272 6.24446 1.74464 5.95402 1.52656C 5.66358 1.38118 5.30054 1.23579 4.93749 1.0904C 4.57444 1.01771 4.06615 0.945014 3.63049 0.945014L 1.30699 0.945014L 1.30699 5.67008Z" transform="translate(192.271 62.2982)" fill="#008AD0"/>
</g>
<g id="Vector_13">
<path d="M 5.59098 11.1948L 9.80236 -1.10921e-06L 11.1819 -1.10921e-06L 6.24447 12.8667L 4.86488 12.8667L 0 0.0726912L 1.4522 0.0726912L 5.59098 11.1948Z" transform="translate(202.582 62.2256)" fill="#008AD0"/>
</g>
<g id="Vector_14">
<path d="M 1.30698 12.8667L 4.43176e-06 12.8667L 4.43176e-06 -2.21843e-06L 1.30698 -2.21843e-06L 1.30698 12.8667Z" transform="translate(216.814 62.2982)" fill="#008AD0"/>
</g>
<g id="Vector_15">
<path d="M 11.4724 10.904C 11.2546 11.2675 10.9641 11.5582 10.6737 11.849C 10.3832 12.1398 10.0202 12.4306 9.58453 12.6486C 9.14887 12.8667 8.7132 13.0121 8.27754 13.1575C 7.76927 13.3029 7.26101 13.3756 6.68013 13.3756C 5.7362 13.3756 4.79226 13.2302 3.99355 12.8667C 3.19484 12.5033 2.46874 12.0671 1.88786 11.4856C 1.30698 10.904 0.798715 10.1771 0.508275 9.37745C 0.145225 8.57782 -4.43176e-06 7.6328 -4.43176e-06 6.68779C -4.43176e-06 5.74277 0.145225 4.79776 0.508275 3.99814C 0.871325 3.19851 1.30698 2.47157 1.88786 1.89003C 2.46874 1.30848 3.19484 0.799625 3.99355 0.508851C 4.79226 0.218078 5.66359 0 6.68013 0C 7.1884 0 7.62405 0.0726912 8.05971 0.145385C 8.49537 0.218078 8.93103 0.363469 9.36669 0.581549C 9.72974 0.726936 10.0928 0.945012 10.4558 1.23579C 10.8189 1.52656 11.0367 1.74464 11.2546 2.10811L 10.1654 2.90774C 10.0202 2.68966 9.87497 2.47157 9.65714 2.32619C 9.43931 2.1808 9.14887 1.96272 8.85843 1.74464C 8.56799 1.59926 8.20494 1.45387 7.84189 1.38118C 7.47884 1.30848 7.11579 1.23579 6.68013 1.23579C 5.80881 1.23579 5.0827 1.38118 4.42921 1.67195C 3.77572 1.96272 3.19485 2.39888 2.75919 2.90774C 2.32353 3.41659 1.96048 3.99814 1.67004 4.72507C 1.45221 5.37931 1.30699 6.10625 1.30699 6.83318C 1.30699 7.56011 1.45221 8.28705 1.67004 8.94129C 1.88787 9.59553 2.25092 10.1771 2.75919 10.7586C 3.19485 11.2675 3.77572 11.7036 4.42921 11.9944C 5.0827 12.2852 5.80881 12.4306 6.68013 12.4306C 7.40623 12.4306 8.13232 12.2852 8.78581 11.9944C 9.4393 11.7036 10.0202 11.1948 10.4558 10.5405L 11.4724 10.904Z" transform="translate(222.114 62.1529)" fill="#008AD0"/>
</g>
<g id="Vector_16">
<path d="M 1.30698 11.7036L 8.20493 11.7036L 8.20493 12.8667L 4.43176e-06 12.8667L 4.43176e-06 -2.21843e-06L 7.98711 -2.21843e-06L 7.98711 1.1631L 1.30698 1.1631L 1.30698 5.59739L 7.55144 5.59739L 7.55144 6.76048L 1.30698 6.76048L 1.30698 11.7036Z" transform="translate(237.144 62.2982)" fill="#008AD0"/>
</g>
<g id="Vector_17">
<path d="M 6.97057 2.47157C 6.68013 2.10811 6.31708 1.74464 5.88142 1.52656C 5.44576 1.30848 4.93748 1.16309 4.28399 1.16309C 3.99355 1.16309 3.63051 1.23579 3.34007 1.30848C 2.97702 1.38118 2.68657 1.52656 2.46874 1.74464C 2.1783 1.96272 1.96048 2.1808 1.81526 2.47157C 1.67004 2.76235 1.59741 3.12582 1.59741 3.56198C 1.59741 3.99814 1.67004 4.28891 1.81526 4.57968C 1.96048 4.87046 2.1783 5.08854 2.46874 5.23393C 2.75918 5.45201 3.04963 5.59739 3.34007 5.67008C 3.70312 5.81547 3.99356 5.88816 4.35661 6.03355C 4.79227 6.17894 5.22792 6.32432 5.73619 6.5424C 6.17185 6.68779 6.60752 6.90587 6.97057 7.19664C 7.33362 7.48742 7.62405 7.77819 7.84188 8.21435C 8.05971 8.65051 8.20493 9.15936 8.20493 9.8136C 8.20493 10.4678 8.05971 10.9767 7.84188 11.4856C 7.62405 11.9944 7.26101 12.3579 6.89796 12.6486C 6.53491 12.9394 6.02662 13.1575 5.59096 13.3029C 5.08269 13.4483 4.57444 13.521 4.06617 13.521C 3.70312 13.521 3.26746 13.4483 2.90441 13.3756C 2.54136 13.3029 2.17831 13.1575 1.81526 13.0121C 1.45221 12.8667 1.16177 12.6486 0.798719 12.4306C 0.508279 12.2125 0.217835 11.9217 4.43176e-06 11.6309L 1.08915 10.7586C 1.3796 11.1948 1.74265 11.6309 2.25092 11.9217C 2.75919 12.2125 3.34007 12.3579 3.99356 12.3579C 4.35661 12.3579 4.64704 12.2852 5.01009 12.2125C 5.37314 12.1398 5.66357 11.9217 5.95401 11.7036C 6.24445 11.4856 6.4623 11.2675 6.60752 10.904C 6.75274 10.6132 6.89796 10.2498 6.89796 9.8136C 6.89796 9.37744 6.82535 9.01398 6.60752 8.7232C 6.4623 8.43243 6.17186 8.14166 5.88142 7.99627C 5.59098 7.77819 5.22791 7.63281 4.86486 7.48742C 4.50181 7.34203 4.06617 7.19665 3.70312 7.12395C 3.26746 6.97857 2.83179 6.83318 2.46874 6.68779C 2.10569 6.54241 1.67003 6.32432 1.37959 6.03355C 1.08915 5.74278 0.798706 5.452 0.580876 5.01584C 0.363046 4.65238 0.29044 4.14352 0.29044 3.56198C 0.29044 2.98043 0.43566 2.39888 0.65349 1.96272C 0.87132 1.52656 1.23436 1.1631 1.59741 0.872323C 1.96046 0.581549 2.46875 0.363468 2.90441 0.218081C 3.41268 0.0726945 3.84834 -1.10921e-06 4.35661 -1.10921e-06C 5.22793 -1.10921e-06 5.95403 0.145385 6.60752 0.436158C 7.26101 0.726932 7.69667 1.0904 7.98711 1.52656L 6.97057 2.47157Z" transform="translate(248.399 61.8621)" fill="#008AD0"/>
</g>
</g>
<g id="Group_3">
<g id="Vector_18">
<path d="M 5.59097 40.1994L 0 40.1994L 0 2.77303e-07L 5.59097 2.77303e-07L 5.59097 40.1994Z" transform="translate(56.9989 12.0671)" fill="#008AD0"/>
</g>
<g id="Vector_19">
<path d="M 28.2453 32.1305L 28.3905 32.1305L 28.3905 2.77303e-07L 33.9815 2.77303e-07L 33.9815 40.1268L 26.8657 40.1268L 5.66358 7.34203L 5.59097 7.34203L 5.59097 40.1268L 2.21588e-06 40.1268L 2.21588e-06 2.77303e-07L 7.33361 2.77303e-07L 28.2453 32.1305Z" transform="translate(80.8149 12.0671)" fill="#008AD0"/>
</g>
<g id="Vector_20">
<path d="M -2.21588e-06 2.77303e-07L 13.7959 2.77303e-07C 16.3373 2.77303e-07 18.9512 0.363467 21.4926 1.16309C 24.0339 1.89003 26.3574 3.12582 28.4631 4.72507C 30.5688 6.32433 32.2389 8.43243 33.4732 10.9767C 34.7802 13.521 35.4337 16.5741 35.4337 20.1361C 35.4337 23.5527 34.7802 26.5331 33.4732 29.0774C 32.1662 31.6216 30.4962 33.657 28.4631 35.329C 26.3574 37.0009 24.0339 38.2367 21.4926 39.0364C 18.9512 39.836 16.3373 40.2721 13.7959 40.2721L -2.21588e-06 40.2721L -2.21588e-06 2.77303e-07ZM 5.59097 35.2563L 12.6342 35.2563C 15.0303 35.2563 17.2812 34.8928 19.3143 34.2386C 21.3474 33.5843 23.1626 32.5666 24.6148 31.2582C 26.1396 29.9497 27.3014 28.3504 28.1001 26.4604C 28.8988 24.5704 29.3345 22.4623 29.3345 20.0634C 29.3345 17.5918 28.8988 15.411 28.1001 13.521C 27.3014 11.6309 26.1396 10.0317 24.6148 8.7959C 23.09 7.56011 21.3474 6.54241 19.3143 5.88816C 17.2812 5.23392 15.0303 4.87046 12.6342 4.87046L 5.59097 4.87046L 5.59097 35.2563Z" transform="translate(133.021 12.0671)" fill="#008AD0"/>
</g>
<g id="Vector_21">
<path d="M 5.59097 35.1836L 26.5753 35.1836L 26.5753 40.1994L 2.21588e-06 40.1994L 2.21588e-06 2.77303e-07L 25.704 2.77303e-07L 25.704 4.94315L 5.59097 4.94315L 5.59097 17.0103L 24.4696 17.0103L 24.4696 21.808L 5.59097 21.808L 5.59097 35.1836Z" transform="translate(184.647 12.0671)" fill="#008AD0"/>
</g>
<g id="Vector_22">
<path d="M 17.8621 14.9748L 27.374 2.77303e-07L 33.9089 2.77303e-07L 21.1295 18.973L 35.6515 40.1268L 28.6084 40.1268L 17.6442 23.2619L 6.89796 40.1268L 4.43176e-06 40.1268L 14.3042 18.9003L 1.37959 2.77303e-07L 8.20493 2.77303e-07L 17.8621 14.9748Z" transform="translate(223.348 12.0671)" fill="#008AD0"/>
</g>
</g>
<g id="Vector_23">
<path d="M 49.4474 52.2665L 38.4107 52.2665L 30.1332 26.2423C 32.6019 24.4977 34.1993 21.6626 34.1993 18.4641C 34.1993 14.1752 31.3675 10.5405 27.5192 9.37745L 27.5192 0L 21.9282 0L 21.9282 9.37745C 18.0799 10.5405 15.2481 14.1752 15.2481 18.4641C 15.2481 21.6626 16.8455 24.5704 19.3143 26.2423L 10.9641 52.2665L 0 52.2665L 1.88786 57.8639L 9.22147 57.8639L 5.59097 69.0587L 8.56798 78L 15.0303 57.7912L 21.9282 57.7912L 21.9282 64.2609L 27.5192 64.2609L 27.5192 57.7912L 34.4172 57.7912L 40.8794 78L 43.7839 69.0587L 40.1534 57.7912L 47.487 57.7912L 49.4474 52.2665ZM 20.7665 18.4641C 20.7665 17.8099 20.9117 17.2283 21.2021 16.6468C 21.5652 15.9199 22.1461 15.3383 22.8722 14.9748C 23.3804 14.6841 24.0339 14.5387 24.6874 14.5387C 26.2122 14.5387 27.5192 15.411 28.1727 16.6468C 28.4631 17.1556 28.6084 17.8099 28.6084 18.4641C 28.6084 19.1184 28.4631 19.6999 28.1727 20.2815C 28.0275 20.5722 27.8096 20.863 27.5918 21.1538C 27.374 21.3719 27.0835 21.5899 26.7931 21.808C 26.7931 21.808 26.7205 21.808 26.7205 21.8807C 26.5753 21.9534 26.5027 22.0261 26.3574 22.0988L 26.2848 22.0988C 26.1396 22.1715 25.9944 22.2442 25.8492 22.2442L 25.7766 22.2442C 25.6313 22.2442 25.4861 22.3169 25.4135 22.3169C 25.3409 22.3169 25.3409 22.3169 25.2683 22.3169C 25.1231 22.3169 24.9052 22.3169 24.76 22.3169C 24.6148 22.3169 24.397 22.3169 24.2518 22.3169C 24.1791 22.3169 24.1791 22.3169 24.1065 22.3169C 23.9613 22.3169 23.8161 22.2442 23.7435 22.2442L 23.6709 22.2442C 23.5257 22.1715 23.3804 22.1715 23.2352 22.0988L 23.1626 22.0988C 23.0174 22.0261 22.8722 21.9534 22.7996 21.8807C 22.7996 21.8807 22.7269 21.8807 22.7269 21.808C 22.4365 21.6626 22.2187 21.4445 21.9282 21.1538C 21.7104 20.863 21.4926 20.6449 21.3474 20.2815C 20.9117 19.6999 20.7665 19.1184 20.7665 18.4641ZM 27.5192 52.2665L 27.5192 45.4334L 21.9282 45.4334L 21.9282 52.2665L 16.8455 52.2665L 24.6148 27.987C 24.6874 27.987 24.6874 27.987 24.76 27.987C 24.8326 27.987 24.8326 27.987 24.9052 27.987L 32.6745 52.2665L 27.5192 52.2665Z" fill="#737373"/>
</g>
</g>
</g>
</g>
</svg>

