<svg xmlns="http://www.w3.org/2000/svg" width="261.603" height="78.679" viewBox="0 0 261.603 78.679">
  <title>index_logo_white</title>
  <g>
    <g>
      <path d="M58.705,75.8h-1.32V62.819h7.828v1.173H58.705v4.491h6.049v1.174H58.705Z" fill="#fff"/>
      <path d="M70.291,75.8h-1.32V62.819h1.32Z" fill="#fff"/>
      <path d="M84.223,73.873h.036V62.819h1.32V75.8h-1.65L76.377,64.633H76.34V75.8H75.02V62.819h1.65Z" fill="#fff"/>
      <path d="M90.216,75.8H88.768l5.61-12.979h1.284L101.234,75.8H99.768l-1.43-3.41H91.629Zm1.907-4.62h5.72l-2.86-6.893Z" fill="#fff"/>
      <path d="M113.627,73.873h.036V62.819h1.32V75.8h-1.65l-7.552-11.165h-.037V75.8h-1.32V62.819h1.649Z" fill="#fff"/>
      <path d="M130.638,73.69a5.41,5.41,0,0,1-.8.936,5.206,5.206,0,0,1-1.081.776,6.077,6.077,0,0,1-1.356.53,6.383,6.383,0,0,1-1.623.2,7.077,7.077,0,0,1-2.713-.513,6.336,6.336,0,0,1-3.547-3.575,7.227,7.227,0,0,1-.5-2.732,7.088,7.088,0,0,1,.513-2.731A6.437,6.437,0,0,1,123.1,63a6.942,6.942,0,0,1,2.685-.513,6.615,6.615,0,0,1,1.4.149,6.545,6.545,0,0,1,1.293.419,5.5,5.5,0,0,1,1.1.648,3.787,3.787,0,0,1,.825.855l-1.1.807a3.275,3.275,0,0,0-.541-.623,3.664,3.664,0,0,0-.8-.55,5.033,5.033,0,0,0-1-.386,4.458,4.458,0,0,0-1.163-.146,5.381,5.381,0,0,0-2.265.457,5.109,5.109,0,0,0-1.7,1.233,5.387,5.387,0,0,0-1.064,1.8,6.343,6.343,0,0,0-.366,2.155,6.2,6.2,0,0,0,.376,2.157,5.5,5.5,0,0,0,1.072,1.8,5.065,5.065,0,0,0,1.7,1.233,5.316,5.316,0,0,0,2.246.457,5.078,5.078,0,0,0,2.126-.458,4.022,4.022,0,0,0,1.686-1.467Z" fill="#fff"/>
      <path d="M135.515,75.8h-1.321V62.819h1.321Z" fill="#fff"/>
      <path d="M140.152,75.8H138.7l5.61-12.979H145.6L151.17,75.8H149.7l-1.43-3.41h-6.709Zm1.907-4.62h5.719l-2.86-6.893Z" fill="#fff"/>
      <path d="M155.68,74.624h6.049V75.8h-7.37V62.819h1.321Z" fill="#fff"/>
      <path d="M176.706,64.908a3.161,3.161,0,0,0-1.081-.943,3.3,3.3,0,0,0-1.595-.358,3.409,3.409,0,0,0-.972.147,2.8,2.8,0,0,0-.9.449,2.289,2.289,0,0,0-.65.76,2.237,2.237,0,0,0-.248,1.082,2,2,0,0,0,.237,1.027,2.256,2.256,0,0,0,.631.687,3.636,3.636,0,0,0,.9.468c.335.122.685.245,1.051.366q.676.22,1.362.477a4.9,4.9,0,0,1,1.234.669,3.248,3.248,0,0,1,.9,1.045,3.316,3.316,0,0,1,.347,1.6,3.567,3.567,0,0,1-.371,1.678,3.5,3.5,0,0,1-.962,1.163,3.987,3.987,0,0,1-1.353.678,5.47,5.47,0,0,1-1.53.221,5.84,5.84,0,0,1-1.174-.12,5.257,5.257,0,0,1-1.117-.357,4.561,4.561,0,0,1-.991-.6,4.383,4.383,0,0,1-.806-.843l1.136-.843a3.5,3.5,0,0,0,1.183,1.164,3.348,3.348,0,0,0,1.787.467,3.453,3.453,0,0,0,1.008-.156,2.818,2.818,0,0,0,.926-.476,2.636,2.636,0,0,0,.678-.789,2.155,2.155,0,0,0,.267-1.09,2.18,2.18,0,0,0-.267-1.128,2.361,2.361,0,0,0-.705-.751,4.359,4.359,0,0,0-1.008-.5q-.569-.2-1.192-.4-.642-.2-1.265-.458a4.266,4.266,0,0,1-1.118-.669,3.133,3.133,0,0,1-.8-1.017,3.312,3.312,0,0,1-.3-1.486,3.276,3.276,0,0,1,.376-1.613,3.392,3.392,0,0,1,.98-1.118,4.1,4.1,0,0,1,1.339-.641,5.414,5.414,0,0,1,1.448-.2,5.005,5.005,0,0,1,2.255.467,3.883,3.883,0,0,1,1.411,1.109Z" fill="#fff"/>
      <path d="M183.361,74.624h6.947V75.8H182.04V62.819h8.048v1.173h-6.727v4.455h6.287V69.62h-6.287Z" fill="#fff"/>
      <path d="M195.5,75.8h-1.32V62.819h3.813a8.081,8.081,0,0,1,1.769.183,4.01,4.01,0,0,1,1.412.6,2.816,2.816,0,0,1,.926,1.073,3.574,3.574,0,0,1,.329,1.612,3.174,3.174,0,0,1-.953,2.32,3.342,3.342,0,0,1-1.045.687,4.552,4.552,0,0,1-1.319.33L202.9,75.8h-1.613L197.7,69.73h-2.2Zm0-7.2h2.292a4.4,4.4,0,0,0,2.456-.577,1.947,1.947,0,0,0,.861-1.733,2.246,2.246,0,0,0-.238-1.081,1.952,1.952,0,0,0-.66-.715,3.02,3.02,0,0,0-1.026-.4,6.511,6.511,0,0,0-1.339-.128H195.5Z" fill="#fff"/>
      <path d="M210.2,74.093h.037l4.216-11.274h1.412L210.894,75.8H209.5l-4.95-12.979h1.43Z" fill="#fff"/>
      <path d="M220.244,75.8h-1.32V62.819h1.32Z" fill="#fff"/>
      <path d="M235.9,73.69a5.4,5.4,0,0,1-.8.936,5.24,5.24,0,0,1-1.082.776,6.058,6.058,0,0,1-1.356.53,6.378,6.378,0,0,1-1.623.2,7.081,7.081,0,0,1-2.713-.513,6.344,6.344,0,0,1-3.547-3.575,7.227,7.227,0,0,1-.5-2.732,7.107,7.107,0,0,1,.513-2.731A6.445,6.445,0,0,1,228.356,63a6.942,6.942,0,0,1,2.685-.513,6.631,6.631,0,0,1,1.4.149,6.557,6.557,0,0,1,1.292.419,5.5,5.5,0,0,1,1.1.648,3.787,3.787,0,0,1,.825.855l-1.1.807a3.24,3.24,0,0,0-.541-.623,3.682,3.682,0,0,0-.8-.55,5.057,5.057,0,0,0-1-.386,4.466,4.466,0,0,0-1.164-.146,5.38,5.38,0,0,0-2.264.457,5.1,5.1,0,0,0-1.7,1.233,5.368,5.368,0,0,0-1.063,1.8,6.344,6.344,0,0,0-.367,2.155,6.2,6.2,0,0,0,.376,2.157,5.5,5.5,0,0,0,1.073,1.8,5.071,5.071,0,0,0,1.695,1.233,5.319,5.319,0,0,0,2.246.457,5.072,5.072,0,0,0,2.126-.458,4.018,4.018,0,0,0,1.687-1.467Z" fill="#fff"/>
      <path d="M240.775,74.624h6.948V75.8h-8.268V62.819H247.5v1.173h-6.728v4.455h6.287V69.62h-6.287Z" fill="#fff"/>
      <path d="M257.878,64.908a3.161,3.161,0,0,0-1.081-.943,3.3,3.3,0,0,0-1.6-.358,3.4,3.4,0,0,0-.971.147,2.79,2.79,0,0,0-.9.449,2.289,2.289,0,0,0-.65.76,2.237,2.237,0,0,0-.248,1.082,1.994,1.994,0,0,0,.238,1.027,2.24,2.24,0,0,0,.63.687,3.636,3.636,0,0,0,.9.468c.335.122.686.245,1.051.366q.677.22,1.362.477a4.9,4.9,0,0,1,1.234.669,3.236,3.236,0,0,1,.9,1.045,3.316,3.316,0,0,1,.347,1.6,3.567,3.567,0,0,1-.37,1.678,3.519,3.519,0,0,1-.963,1.163,3.977,3.977,0,0,1-1.353.678,5.465,5.465,0,0,1-1.53.221,5.84,5.84,0,0,1-1.174-.12,5.257,5.257,0,0,1-1.117-.357,4.561,4.561,0,0,1-.991-.6,4.383,4.383,0,0,1-.806-.843l1.136-.843a3.5,3.5,0,0,0,1.183,1.164,3.348,3.348,0,0,0,1.787.467,3.453,3.453,0,0,0,1.008-.156,2.808,2.808,0,0,0,.926-.476,2.636,2.636,0,0,0,.678-.789,2.155,2.155,0,0,0,.267-1.09,2.18,2.18,0,0,0-.267-1.128,2.361,2.361,0,0,0-.7-.751,4.339,4.339,0,0,0-1.008-.5q-.568-.2-1.192-.4-.642-.2-1.265-.458a4.266,4.266,0,0,1-1.118-.669,3.133,3.133,0,0,1-.8-1.017,3.312,3.312,0,0,1-.3-1.486,3.276,3.276,0,0,1,.376-1.613,3.392,3.392,0,0,1,.98-1.118,4.112,4.112,0,0,1,1.339-.641,5.414,5.414,0,0,1,1.448-.2,5.005,5.005,0,0,1,2.255.467,3.883,3.883,0,0,1,1.411,1.109Z" fill="#fff"/>
    </g>
    <g>
      <path d="M63.2,52.688H57.533V12.194H63.2Z" fill="#fff"/>
      <path d="M110.152,44.566h.115V12.194h5.662V52.688H108.78L87.389,19.629h-.115V52.688H81.612V12.194H88.99Z" fill="#fff"/>
      <path d="M134.345,12.194h13.9a27.436,27.436,0,0,1,7.778,1.144,20.9,20.9,0,0,1,7.035,3.6,18.439,18.439,0,0,1,5.09,6.292,20.139,20.139,0,0,1,1.945,9.208,19.546,19.546,0,0,1-1.945,9.008,18.8,18.8,0,0,1-5.09,6.292,21.891,21.891,0,0,1-7.035,3.718,25.672,25.672,0,0,1-7.778,1.229h-13.9Zm5.662,35.518H147.1a21.481,21.481,0,0,0,6.777-1.03,15.675,15.675,0,0,0,5.377-2.973,13.321,13.321,0,0,0,3.517-4.8,15.887,15.887,0,0,0,1.258-6.463,16.348,16.348,0,0,0-1.258-6.635,13.05,13.05,0,0,0-3.517-4.775,15.572,15.572,0,0,0-5.377-2.918,22.1,22.1,0,0,0-6.777-1h-7.093Z" fill="#fff"/>
      <path d="M192.111,47.655h21.163v5.033H186.449V12.194h25.967V17.17H192.111V29.3h19.1v4.862h-19.1Z" fill="#fff"/>
      <path d="M243.587,27.294l9.609-15.1h6.634L246.9,31.354l14.7,21.334h-7.149l-11.1-17.044L232.491,52.688h-6.978l14.47-21.448-13.04-19.046h6.921Z" fill="#fff"/>
    </g>
    <path d="M49.912,52.688H38.818l-8.393-26.2A9.578,9.578,0,0,0,27.766,9.455V0h-5.62V9.455a9.578,9.578,0,0,0-2.659,17.029l-8.393,26.2H0l1.875,5.62H9.294L5.66,69.654l3.011,9.024L15.2,58.308h6.951v6.546h5.62V58.308h6.95l6.525,20.371,3.011-9.024L40.617,58.308h7.42ZM20.989,18.62a3.944,3.944,0,0,1,.438-1.8h0l.009-.018h0a3.982,3.982,0,0,1,1.7-1.7h0l.018-.009h0A3.955,3.955,0,0,1,28.476,16.8h0a3.928,3.928,0,0,1,.008,3.628h0a3.965,3.965,0,0,1-.6.858l-.033.036a3.953,3.953,0,0,1-.777.647c-.024.016-.049.03-.074.045a3.966,3.966,0,0,1-.38.2l-.073.035a4.079,4.079,0,0,1-.464.171c-.029.009-.06.015-.09.023a4.041,4.041,0,0,1-.4.087c-.045.007-.09.015-.135.02a3.492,3.492,0,0,1-1.014,0c-.046,0-.09-.013-.135-.02a3.791,3.791,0,0,1-.4-.087c-.03-.008-.06-.014-.09-.023a3.9,3.9,0,0,1-.464-.172c-.024-.01-.047-.022-.071-.034a3.9,3.9,0,0,1-.383-.2l-.072-.045a3.964,3.964,0,0,1-.778-.648l-.032-.035a4.03,4.03,0,0,1-.6-.858h0A3.947,3.947,0,0,1,20.989,18.62Zm6.777,34.068V45.782h-5.62v6.906H17L24.838,28.2c.039,0,.078.006.118.006s.078,0,.118-.006l7.842,24.487Z" fill="#fff"/>
  </g>
</svg>
